<svg xmlns="http://www.w3.org/2000/svg" width="165.091" height="67.781" viewBox="0 0 165.091 67.781">
  <g id="Group_2" data-name="Group 2" transform="translate(-0.009 -0.009)">
    <path id="Path_14" data-name="Path 14" d="M89.9,45.5a9.906,9.906,0,0,1-7.8,0A10.112,10.112,0,0,1,76.6,40a10.065,10.065,0,0,1-.8-3.9V21h3.8V36.1a6.963,6.963,0,0,0,.5,2.5,6.435,6.435,0,0,0,3.5,3.5,6.5,6.5,0,0,0,5,0,6.435,6.435,0,0,0,3.5-3.5,6.963,6.963,0,0,0,.5-2.5V21h3.8V36.1a10.065,10.065,0,0,1-.8,3.9,10.6,10.6,0,0,1-2.2,3.3,16.86,16.86,0,0,1-3.5,2.2Zm22.7-24.4a9.906,9.906,0,0,0-7.8,0,10.112,10.112,0,0,0-5.5,5.5,10.065,10.065,0,0,0-.8,3.9V45.6h3.8V30.5a6.963,6.963,0,0,1,.5-2.5,6.435,6.435,0,0,1,3.5-3.5,6.5,6.5,0,0,1,5,0,6.435,6.435,0,0,1,3.5,3.5,6.963,6.963,0,0,1,.5,2.5V45.6h3.8V30.5a10.065,10.065,0,0,0-.8-3.9,10.6,10.6,0,0,0-2.2-3.3,12.031,12.031,0,0,0-3.5-2.2Zm28.4,21a4.99,4.99,0,0,1-2.1-.5,6.435,6.435,0,0,1-3.5-3.5,6.963,6.963,0,0,1-.5-2.5V24H141V21h-6.1V7.6h-3.8v28a10.065,10.065,0,0,0,.8,3.9,10.308,10.308,0,0,0,9.1,6.3V42.1Zm4.3,9.7a13.552,13.552,0,0,1-2-.2v3.9a9.417,9.417,0,0,0,2.9.1,10.889,10.889,0,0,0,3.1-.8,9.017,9.017,0,0,0,3.2-2.3,9.767,9.767,0,0,0,2.1-3.4l10.5-27.9h-4l-6.8,18.1L148,21.2h-4l8.2,23.7-1,2.8a7.434,7.434,0,0,1-1.3,2.1,8.008,8.008,0,0,1-2.1,1.5,7.418,7.418,0,0,1-2.5.5Zm-22.5-6.1h3.9V21h-3.9V45.7Z" fill="#fff" fill-rule="evenodd"/>
    <path id="Path_15" data-name="Path 15" d="M23.3,49.8c-3.5-.6-7.3-.9-10.7-1.8a19.03,19.03,0,0,1-7.7-3.7A13.3,13.3,0,0,1,.2,36a12.512,12.512,0,0,1,1.3-8.2A19.493,19.493,0,0,1,8,21.2L19.5,14l-1,6.4c-.1.4-.1.8-.2,1.2L14.4,24l-3.3,2a14.084,14.084,0,0,0-4.2,3.8,6.718,6.718,0,0,0-1,5.1,8.281,8.281,0,0,0,3,5.1,23.077,23.077,0,0,0,6.9,3.8,204.509,204.509,0,0,1,22.5,7.4c-5.4-.4-9.5-.6-15-1.4Z" fill="#fff"/>
    <path id="Path_16" data-name="Path 16" d="M44.5,18.1c3.5.6,7.3.9,10.7,1.8a19.029,19.029,0,0,1,7.7,3.7,13.3,13.3,0,0,1,4.7,8.3,12.512,12.512,0,0,1-1.3,8.2,19.493,19.493,0,0,1-6.5,6.6L48.3,53.9l1-6.4c.1-.4.1-.8.2-1.2l3.9-2.4,3.3-2.1A14.084,14.084,0,0,0,60.9,38a6.718,6.718,0,0,0,1-5.1,8.282,8.282,0,0,0-3-5.1A23.077,23.077,0,0,0,52,24a204.509,204.509,0,0,1-22.5-7.4c5.4.4,9.5.6,15,1.5Z" fill="#fff"/>
    <path id="Path_17" data-name="Path 17" d="M49.8,44.5c-.6,3.5-.9,7.3-1.8,10.7a19.03,19.03,0,0,1-3.7,7.7A13.3,13.3,0,0,1,36,67.6a12.512,12.512,0,0,1-8.2-1.3,18.645,18.645,0,0,1-6.6-6.5L14,48.3l6.4,1c.4.1.8.1,1.2.2L24,53.4l2.1,3.3a14.084,14.084,0,0,0,3.8,4.2,6.718,6.718,0,0,0,5.1,1,8.281,8.281,0,0,0,5.1-3A23.077,23.077,0,0,0,43.9,52a204.509,204.509,0,0,1,7.4-22.5c-.5,5.4-.7,9.5-1.5,15Z" fill="#e13bff"/>
    <path id="Path_18" data-name="Path 18" d="M18.1,23.3c.6-3.5.9-7.3,1.8-10.7a19.029,19.029,0,0,1,3.7-7.7A13.3,13.3,0,0,1,31.9.2a12.512,12.512,0,0,1,8.2,1.3A18.645,18.645,0,0,1,46.7,8l7.2,11.5-6.4-1c-.4-.1-.8-.1-1.2-.2l-2.4-3.9-2.1-3.3A14.084,14.084,0,0,0,38,6.9a6.718,6.718,0,0,0-5.1-1,8.282,8.282,0,0,0-5.1,3A23.077,23.077,0,0,0,24,15.8a204.509,204.509,0,0,1-7.4,22.5c.4-5.4.6-9.5,1.5-15Z" fill="#e13bff"/>
  </g>
</svg>
